<svg xmlns="http://www.w3.org/2000/svg" viewBox="0 0 781.31 719.1">
  <defs>
    <style>
      .shapes {
      stroke-miterlimit: 10;
      stroke-width: 4px;
      }
    </style>
  </defs>
  <g id="mupa">
    <path id="yellow" class="shapes stroke-yellow"
      d="m113.71,356.38c-23.64,6.94-41.58,146.81,26.86,176.29,40.56,17.47,96.34-10.35,120.88-50.37,42.46-69.25-13.98-166.31-35.26-164.53-19.31,1.61-16.37,85.19-47.01,90.66-27.07,4.83-48.66-56.99-65.48-52.05Z" />
    <path id="pink" class="shapes stroke-pink"
      d="m449.23,8.55c-44.26-19.75-115.71,7.65-130.36,48.64-16.96,47.47,52.98,83.13,44.75,157.6-6.74,60.94-58.77,84.14-46.7,108.96,13.63,28.01,96.89,33.36,145.93-3.89,88.63-67.32,67.35-275.19-13.62-311.31Z" />
    <path id="red" class="shapes stroke-red"
      d="m235.05,158.44c-72.53,44.12-142.41,151.18-99.81,235.4,47.49,93.91,205.31,101.13,224.11,67.8,18.51-32.82-93.67-112.12-69.68-156.31,17.26-31.79,83.14-5.19,120.53-48.96,25.04-29.32,28.58-79.99,7.53-107.34-33.66-43.74-127.41-24.2-182.67,9.42Z" />
    <path id="ochre" class="shapes stroke-ochre"
      d="m350.26,234.13c-119.77,95.17-216.5,343.57-135.97,420.45,36.18,34.54,109.71,35.95,146.43,4.18,60.2-52.08,13.91-186.77,46.02-196.63,21.94-6.74,41.12,56.88,100.41,69.03,40.99,8.4,92.26-9.63,100.41-37.65,10.55-36.31-60.86-56.36-73.21-121.32-15.43-81.15,79.61-135.98,56.48-175.71-19.94-34.25-107.8-23.1-158.98-6.28-40.79,13.4-69,33.93-81.58,43.93Z" />
    <path id="purple" class="shapes stroke-purple"
      d="m257.84,221.66c-87.33,96.58-39.8,254.71-87.86,267.75-36.02,9.78-70.42-76.99-115.05-66.94-36.69,8.27-64.54,78.43-48.11,129.69,23.03,71.88,134.12,109.87,213.36,94.13,195.29-38.8,291.59-422.77,213.36-483.21-36.95-28.55-126.7,4.37-175.71,58.57Z" />
    <path id="blue" class="shapes stroke-blue"
      d="m261.94,560.1c18.41-113.13,433.41-190.99,505.87-74.6,33.27,53.44-16.04,131.21-18.65,135.21-88.98,136.47-378.86,121.03-466.24-2.33-10.89-15.37-24.77-34.97-20.98-58.28Z" />
  </g>
</svg>